<svg viewBox="0 0 512 512" fill="none" xmlns="http://www.w3.org/2000/svg">
<rect width="64.875" height="64.625" fill="currentColor"/>
<rect x="255.5" width="64.875" height="64.625" fill="currentColor"/>
<rect x="319.375" width="64.875" height="64.625" fill="currentColor"/>
<rect y="63.625" width="64.875" height="64.625" fill="currentColor"/>
<rect x="63.875" y="63.625" width="64.875" height="64.625" fill="currentColor"/>
<rect x="255.5" y="63.625" width="64.875" height="64.625" fill="currentColor"/>
<rect x="319.375" y="63.625" width="64.875" height="64.625" fill="currentColor"/>
<rect x="127.75" y="127.25" width="64.875" height="64.625" fill="currentColor"/>
<rect x="191.625" y="127.25" width="64.875" height="64.625" fill="currentColor"/>
<rect x="255.5" y="127.25" width="64.875" height="64.625" fill="currentColor"/>
<rect x="319.375" y="127.25" width="64.875" height="64.625" fill="currentColor"/>
<rect x="383.25" y="127.25" width="64.875" height="64.625" fill="currentColor"/>
<rect x="191.625" y="190.875" width="64.875" height="64.625" fill="currentColor"/>
<rect x="255.5" y="190.875" width="64.875" height="64.625" fill="currentColor"/>
<rect x="319.375" y="190.875" width="64.875" height="64.625" fill="currentColor"/>
<rect x="383.25" y="190.875" width="64.875" height="64.625" fill="currentColor"/>
<rect x="447.125" y="190.875" width="64.875" height="64.625" fill="currentColor"/>
<rect y="254.5" width="64.875" height="64.625" fill="currentColor"/>
<rect x="63.875" y="254.5" width="64.875" height="64.625" fill="currentColor"/>
<rect x="127.75" y="254.5" width="64.875" height="64.625" fill="currentColor"/>
<rect x="191.625" y="254.5" width="64.875" height="64.625" fill="currentColor"/>
<rect x="255.5" y="254.5" width="64.875" height="64.625" fill="currentColor"/>
<rect x="319.375" y="254.5" width="64.875" height="64.625" fill="currentColor"/>
<rect x="63.875" y="318.125" width="64.875" height="64.625" fill="currentColor"/>
<rect x="127.75" y="318.125" width="64.875" height="64.625" fill="currentColor"/>
<rect x="191.625" y="318.125" width="64.875" height="64.625" fill="currentColor"/>
<rect x="255.5" y="318.125" width="64.875" height="64.625" fill="currentColor"/>
<rect x="319.375" y="318.125" width="64.875" height="64.625" fill="currentColor"/>
<rect x="127.75" y="381.75" width="64.875" height="64.625" fill="currentColor"/>
<rect x="191.625" y="381.75" width="64.875" height="64.625" fill="currentColor"/>
<rect x="383.25" y="381.75" width="64.875" height="64.625" fill="currentColor"/>
<rect x="447.125" y="381.75" width="64.875" height="64.625" fill="currentColor"/>
<rect x="127.75" y="445.375" width="64.875" height="64.625" fill="currentColor"/>
<rect x="383.25" y="445.375" width="64.875" height="64.625" fill="currentColor"/>
<rect x="447.125" y="445.375" width="64.875" height="64.625" fill="currentColor"/>
</svg>
